<svg width="240" height="48" viewBox="0 0 240 48" fill="none" xmlns="http://www.w3.org/2000/svg">
<path d="M16.8831 5.27441C24.8804 5.27441 30.8581 9.74662 32.7969 17.0648H23.8302C22.457 14.1375 19.872 12.7552 16.8023 12.7552C11.7939 12.7552 8.32039 16.4956 8.32039 22.5127C8.32039 28.5299 11.7939 32.2703 16.8023 32.2703C19.872 32.2703 22.457 30.8066 23.8302 27.9607H32.7969C30.8581 35.2789 24.8804 39.7511 16.8831 39.7511C6.94712 39.6697 0 32.5955 0 22.4314C0 12.2673 6.94712 5.27441 16.8831 5.27441Z" fill="#404041"/>
<path d="M49.1145 39.8329C41.2788 39.8329 35.3818 34.5476 35.3818 26.0097C35.3818 17.4719 41.4404 12.1865 49.2761 12.1865C57.1118 12.1865 63.1703 17.4719 63.1703 26.0097C63.1703 34.5476 56.9502 39.8329 49.1145 39.8329ZM49.1145 32.6774C52.0226 32.6774 54.7691 30.4819 54.7691 26.0097C54.7691 21.4562 52.1034 19.3421 49.1953 19.3421C46.2064 19.3421 43.6214 21.4562 43.6214 26.0097C43.7022 30.4819 46.1256 32.6774 49.1145 32.6774Z" fill="#404041"/>
<path d="M79.4075 39.8329C71.5718 39.8329 65.6748 34.5476 65.6748 26.0098C65.6748 17.4719 71.7333 12.1866 79.569 12.1866C87.4047 12.1866 93.4633 17.4719 93.4633 26.0098C93.4633 34.5476 87.2432 39.8329 79.4075 39.8329ZM79.4075 32.6774C82.3156 32.6774 85.0621 30.482 85.0621 26.0098C85.0621 21.4562 82.3964 19.3421 79.4883 19.3421C76.4994 19.3421 73.9144 21.4562 73.9144 26.0098C73.9144 30.482 76.4186 32.6774 79.4075 32.6774Z" fill="#404041"/>
<path d="M96.3711 5.27441H104.53V23.4885L112.608 12.5926H122.705L111.639 26.0092L122.867 39.4258H112.77L104.611 28.1233V39.4258H96.4519V5.27441H96.3711Z" fill="#404041"/>
<path d="M124.645 5.356C124.645 2.8353 126.583 0.883789 129.491 0.883789C132.399 0.883789 134.338 2.8353 134.338 5.356C134.338 7.79538 132.399 9.74689 129.491 9.74689C126.583 9.74689 124.645 7.79538 124.645 5.356ZM125.452 12.5115H133.611V39.3448H125.452V12.5115Z" fill="#404041"/>
<path d="M150.09 39.8329C142.254 39.8329 136.6 34.5476 136.6 26.0097C136.6 17.4719 142.173 12.1865 150.09 12.1865C157.845 12.1865 163.419 17.3905 163.419 25.6031C163.419 26.335 163.338 27.2294 163.257 28.0425H144.758C145.082 31.539 147.182 33.1652 149.848 33.1652C152.109 33.1652 153.402 32.0269 154.129 30.5632H162.853C161.48 35.7672 156.795 39.8329 150.09 39.8329ZM144.839 23.4077H155.098C155.098 20.4804 152.837 18.7729 150.09 18.7729C147.343 18.7729 145.324 20.3991 144.839 23.4077Z" fill="#404041"/>
<path d="M201.144 39.8329C193.308 39.8329 187.653 34.5476 187.653 26.0098C187.653 17.4719 193.227 12.1866 201.144 12.1866C208.899 12.1866 214.472 17.3906 214.472 25.6032C214.472 26.335 214.392 27.2295 214.311 28.0426H195.812C196.135 31.539 198.236 33.1653 200.901 33.1653C203.163 33.1653 204.456 32.0269 205.183 30.5633H213.907C212.534 35.7673 207.768 39.8329 201.144 39.8329ZM195.812 23.4078H206.071C206.071 20.4805 203.809 18.7729 201.063 18.7729C198.397 18.7729 196.297 20.3992 195.812 23.4078Z" fill="#404041"/>
<path d="M229.255 39.8329C222.146 39.8329 217.38 35.8486 216.977 30.6445H225.055C225.216 32.5147 226.913 33.7344 229.174 33.7344C231.275 33.7344 232.406 32.7587 232.406 31.539C232.406 27.2294 217.865 30.3193 217.865 20.4804C217.865 15.9269 221.743 12.1865 228.69 12.1865C235.556 12.1865 239.433 16.0082 239.918 21.2936H232.325C232.082 19.5047 230.709 18.285 228.367 18.285C226.428 18.285 225.378 19.0168 225.378 20.3178C225.378 24.6274 239.837 21.5375 239.999 31.6203C240.08 36.2551 235.96 39.8329 229.255 39.8329Z" fill="#404041"/>
<path d="M171.901 13H163.419L171.174 27.4737H179.656L171.901 13Z" fill="#0056A7"/>
<path d="M171.013 27.0671L171.255 27.4737H179.737L174.163 17.3096L171.013 27.0671Z" fill="#2E3191"/>
<path d="M186.521 0.802734L171.254 27.4733H179.736L195.003 0.802734H186.521Z" fill="#0056A7"/>
<path d="M171.254 31.457H179.494V39.8323H171.254V31.457Z" fill="#0056A7"/>
</svg>
